<?xml version="1.0" encoding="utf-8"?>
<!-- Generator: Adobe Illustrator 26.2.1, SVG Export Plug-In . SVG Version: 6.00 Build 0)  -->
<svg version="1.1"
	 id="svg1313" inkscape:version="0.42.2" sodipodi:docbase="C:\Documents and Settings\Lukas\Desktop\Wikipedia" sodipodi:docname="lambda_lc.svg" sodipodi:version="0.32" xmlns:cc="http://web.resource.org/cc/" xmlns:dc="http://purl.org/dc/elements/1.1/" xmlns:inkscape="http://www.inkscape.org/namespaces/inkscape" xmlns:rdf="http://www.w3.org/1999/02/22-rdf-syntax-ns#" xmlns:sodipodi="http://inkscape.sourceforge.net/DTD/sodipodi-0.dtd" xmlns:svg="http://www.w3.org/2000/svg"
	 xmlns="http://www.w3.org/2000/svg" xmlns:xlink="http://www.w3.org/1999/xlink" x="0px" y="0px" viewBox="0 0 855 254.7"
	 style="enable-background:new 0 0 855 254.7;" xml:space="preserve">
<style type="text/css">
	.st0{fill:#254680;}
</style>
<sodipodi:namedview  bordercolor="#666666" borderopacity="1.0" id="base" inkscape:current-layer="layer1" inkscape:cx="375.00000" inkscape:cy="134.78022" inkscape:document-units="px" inkscape:pageopacity="0.0" inkscape:pageshadow="2" inkscape:window-height="510" inkscape:window-width="752" inkscape:window-x="66" inkscape:window-y="72" inkscape:zoom="0.35000000" pagecolor="#ffffff">
	</sodipodi:namedview>
<path class="st0" d="M179.4,96.8c-2.1-2-4.7-3-7.9-3s-5.8,1-7.9,3.1c-2.1,2-3.1,4.6-3.1,7.7c0,3,1,5.4,3.1,7.5
	c2.1,2,4.7,3.1,7.9,3.1c3.3,0,6-1,8-3.1c2-2.1,3.1-4.7,3.1-7.7C182.5,101.2,181.5,98.8,179.4,96.8z"/>
<path class="st0" d="M179.6,198.4c0.7-17.5,0-66,0-66h-16.3c0,0-0.6,70.4-1.6,77.8c-1.2,8.3-4.7,13.7-13.9,15
	c-8.8,1.2-14.1-3.9-19.4-11.4c-5.3-7.5-10.4-22.4-15.3-44.8L101,115c-8.5-38.3-14.8-63.6-18.9-75.9s-8.9-20.9-14.3-25.9
	c-5.5-5-11.2-7.5-17.4-7.5C40.9,5.9,33,10.9,26.6,20.9c-6.3,10-9.7,23.3-10,40h6.1c0.7-10.4,3.4-18.1,8.2-23
	c4.8-4.9,10.4-7.3,16.9-7.3c8,0,14.8,4.9,20.2,14.6C73.4,55,78,70,81.9,90.3L9.1,247.2h32.1l50.7-115l14.6,66
	c5.2,23.6,11.1,38,17.7,43.4c6.6,5.3,13.4,6.9,20.6,7c8.4,0.1,17-1.4,23.6-9.3C175.6,230.6,178.6,222.5,179.6,198.4z"/>
<path class="st0" d="M202.7,222.5V96.3H219v60l-1.7,20.9l1,20.9v24.3H202.7z M250.5,223.5c-7.7,0-14.6-1.7-20.8-5.2
	c-6.2-3.5-11-8.6-14.6-15.4s-5.4-15.3-5.4-25.5s1.8-18.7,5.5-25.5c3.7-6.8,8.6-11.9,14.8-15.3c6.2-3.4,13-5.1,20.5-5.1
	c8.8,0,16.7,1.9,23.5,5.8c6.8,3.9,12.2,9.2,16.1,16.1c4,6.9,6,14.9,6,24.1s-2,17.2-6,24.1c-4,6.9-9.3,12.3-16.1,16.2
	C267.2,221.6,259.3,223.5,250.5,223.5z M249.1,209.2c5.8,0,11-1.3,15.6-3.9c4.6-2.6,8.2-6.3,10.9-11.1c2.7-4.8,4-10.4,4-16.7
	c0-6.5-1.3-12-4-16.7c-2.7-4.7-6.3-8.4-10.9-11c-4.6-2.6-9.8-3.9-15.6-3.9c-5.7,0-10.8,1.3-15.4,3.9c-4.6,2.6-8.2,6.3-10.9,11
	c-2.7,4.7-4,10.3-4,16.7c0,6.3,1.3,11.9,4,16.7c2.7,4.8,6.3,8.5,10.9,11.1C238.3,207.9,243.5,209.2,249.1,209.2z"/>
<path class="st0" d="M312.7,222.5v-90.1h15.6v24.5l-1.5-6.1c2.5-6.2,6.7-11,12.6-14.3c5.9-3.3,13.1-4.9,21.8-4.9v15.8
	c-0.7-0.1-1.3-0.2-2-0.2c-0.6,0-1.2,0-1.8,0c-8.7,0-15.6,2.6-20.7,7.8c-5.1,5.2-7.7,12.8-7.7,22.6v44.9H312.7z"/>
<path class="st0" d="M404.9,223.5c-6.7,0-12.6-1.1-17.6-3.4c-5-2.3-8.9-5.4-11.6-9.4c-2.7-4-4.1-8.6-4.1-13.7
	c0-4.9,1.2-9.3,3.5-13.3c2.3-4,6.1-7.1,11.4-9.5c5.3-2.4,12.4-3.6,21.3-3.6h28.6v11.7h-27.9c-8.2,0-13.7,1.4-16.5,4.1
	c-2.8,2.7-4.2,6-4.2,9.9c0,4.4,1.8,8,5.3,10.6c3.5,2.7,8.4,4,14.6,4c6.1,0,11.5-1.4,16.1-4.1c4.6-2.7,7.9-6.7,9.9-11.9l3.2,11.2
	c-2.2,5.3-6,9.5-11.4,12.7C420,221.9,413.2,223.5,404.9,223.5z M434.5,222.5v-19l-0.9-3.6v-32.5c0-6.9-2-12.3-6-16.1
	c-4-3.8-10.1-5.7-18.1-5.7c-5.3,0-10.5,0.9-15.6,2.6c-5.1,1.8-9.4,4.1-12.9,7.1l-6.8-12.2c4.6-3.7,10.2-6.6,16.7-8.6
	c6.5-2,13.3-3,20.5-3c12.4,0,21.9,3,28.6,9c6.7,6,10,15.2,10,27.5v54.4H434.5z"/>
<path class="st0" d="M511.1,223.5c-7.7,0-14.5-1.4-20.3-4.2c-5.8-2.8-10.4-7.2-13.6-13c-3.2-5.8-4.8-13.2-4.8-22v-51.8h16.3v50
	c0,8.8,2.1,15.5,6.4,19.9s10.2,6.6,17.9,6.6c5.7,0,10.6-1.2,14.8-3.5c4.2-2.3,7.4-5.7,9.7-10.2c2.3-4.5,3.4-9.9,3.4-16.2v-46.6h16.3
	v90.1h-15.5v-24.3l2.5,6.5c-2.9,6-7.4,10.7-13.3,13.9C525.1,221.9,518.5,223.5,511.1,223.5z"/>
<path class="st0" d="M631.4,131.5c7.4,0,13.9,1.4,19.5,4.2c5.6,2.8,10,7.1,13.2,12.9c3.2,5.8,4.8,13.1,4.8,21.9v51.8h-16.3v-50
	c0-8.7-2.1-15.3-6.4-19.7c-4.2-4.4-10.2-6.6-17.9-6.6c-5.8,0-10.8,1.1-15.1,3.4c-4.3,2.3-7.6,5.6-9.9,10c-2.3,4.4-3.5,9.9-3.5,16.5
	v46.4h-16.3v-90.1h15.6v24.3l-2.6-6.5c2.9-5.9,7.5-10.5,13.6-13.8C616.1,133.2,623.2,131.5,631.4,131.5z"/>
<path class="st0" d="M734.2,223.5c-9.6,0-18.1-2-25.4-6c-7.3-4-13-9.4-17-16.3c-4-6.9-6-14.8-6-23.8c0-9,2-16.9,5.9-23.8
	c3.9-6.9,9.3-12.3,16.2-16.2c6.9-3.9,14.6-5.9,23.2-5.9c8.7,0,16.4,1.9,23.1,5.8c6.7,3.9,11.9,9.3,15.7,16.2
	c3.8,7,5.7,15.1,5.7,24.4c0,0.7,0,1.5-0.1,2.4c-0.1,0.9-0.1,1.8-0.3,2.6h-76.7v-11.7h68.2l-6.6,4.1c0.1-5.8-1.1-10.9-3.6-15.5
	c-2.5-4.5-5.9-8.1-10.3-10.6c-4.4-2.5-9.4-3.8-15.2-3.8c-5.7,0-10.7,1.3-15.1,3.8c-4.4,2.5-7.9,6.1-10.4,10.7
	c-2.5,4.6-3.7,9.8-3.7,15.7v2.7c0,6,1.4,11.4,4.2,16.1c2.8,4.7,6.7,8.4,11.6,11c5,2.6,10.7,3.9,17.2,3.9c5.3,0,10.2-0.9,14.5-2.7
	c4.4-1.8,8.2-4.5,11.5-8.2l9,10.5c-4.1,4.8-9.2,8.4-15.2,10.9C748.4,222.3,741.7,223.5,734.2,223.5z"/>
<path class="st0" d="M785.2,145.8v-13.4h57.5v13.4H785.2z M829,223.5c-9.1,0-16.1-2.4-21.1-7.3c-5-4.9-7.5-11.8-7.5-20.9v-82.6h16.3
	v81.9c0,4.9,1.2,8.6,3.7,11.2c2.4,2.6,5.9,3.9,10.5,3.9c5.1,0,9.3-1.4,12.8-4.2l5.1,11.7c-2.5,2.2-5.5,3.7-8.9,4.8
	C836.4,223,832.8,223.5,829,223.5z"/>
</svg>
