<?xml version="1.0" encoding="utf-8"?>
<!-- Generator: Adobe Illustrator 26.2.1, SVG Export Plug-In . SVG Version: 6.00 Build 0)  -->
<svg version="1.1"
	 id="svg1313" inkscape:version="0.42.2" sodipodi:docbase="C:\Documents and Settings\Lukas\Desktop\Wikipedia" sodipodi:docname="lambda_lc.svg" sodipodi:version="0.32" xmlns:cc="http://web.resource.org/cc/" xmlns:dc="http://purl.org/dc/elements/1.1/" xmlns:inkscape="http://www.inkscape.org/namespaces/inkscape" xmlns:rdf="http://www.w3.org/1999/02/22-rdf-syntax-ns#" xmlns:sodipodi="http://inkscape.sourceforge.net/DTD/sodipodi-0.dtd" xmlns:svg="http://www.w3.org/2000/svg"
	 xmlns="http://www.w3.org/2000/svg" xmlns:xlink="http://www.w3.org/1999/xlink" x="0px" y="0px" viewBox="0 0 250 250"
	 style="enable-background:new 0 0 250 250;" xml:space="preserve">
<style type="text/css">
	.st0{fill:#254680;}
</style>
<sodipodi:namedview  bordercolor="#666666" borderopacity="1.0" id="base" inkscape:current-layer="layer1" inkscape:cx="375.00000" inkscape:cy="134.78022" inkscape:document-units="px" inkscape:pageopacity="0.0" inkscape:pageshadow="2" inkscape:window-height="510" inkscape:window-width="752" inkscape:window-x="66" inkscape:window-y="72" inkscape:zoom="0.35000000" pagecolor="#ffffff">
	</sodipodi:namedview>
<path class="st0" d="M208.6,94.6c-2.1-2-4.7-3-7.9-3s-5.8,1-7.9,3.1c-2.1,2-3.1,4.6-3.1,7.7c0,3,1,5.4,3.1,7.5
	c2.1,2,4.7,3.1,7.9,3.1c3.3,0,6-1,8-3.1c2-2.1,3.1-4.7,3.1-7.7C211.7,99,210.7,96.6,208.6,94.6z"/>
<path class="st0" d="M208.8,196.2c0.7-17.5,0-66,0-66h-16.3c0,0-0.6,70.4-1.6,77.8c-1.2,8.3-4.7,13.7-13.9,15
	c-8.8,1.2-14.1-3.9-19.4-11.4c-5.3-7.5-10.4-22.4-15.3-44.8l-12.1-53.9c-8.5-38.3-14.8-63.6-18.9-75.9S102.4,16.1,97,11.1
	c-5.5-5-11.2-7.5-17.4-7.5c-9.5,0.1-17.5,5.2-23.8,15.1c-6.3,10-9.7,23.3-10,40h6.1c0.7-10.4,3.4-18.1,8.2-23
	c4.8-4.9,10.4-7.3,16.9-7.3c8,0,14.8,4.9,20.2,14.6c5.4,9.8,10.1,24.8,14,45.1L38.3,245h32.1l50.7-115l14.6,66
	c5.2,23.6,11.1,38,17.7,43.4c6.6,5.3,13.4,6.9,20.6,7c8.4,0.1,17-1.4,23.6-9.3C204.8,228.4,207.8,220.3,208.8,196.2z"/>
</svg>
